<svg viewBox="0 0 1440 700" xmlns="http://www.w3.org/2000/svg" font-family="Source Serif 4, Georgia, Cambria, Times New Roman, Times, serif">
  <defs>
    <marker id="arrow" viewBox="0 0 10 10" refX="9" refY="5" markerWidth="7" markerHeight="7" orient="auto-start-reverse">
      <path d="M 0 0 L 10 5 L 0 10 z" fill="#475569"/>
    </marker>
  </defs>
  <rect x="0" y="0" width="1440" height="700" fill="#ffffff"/>
  <text x="720" y="34" text-anchor="middle" font-size="16" font-weight="700" fill="#0f172a">Charge state machine (capture-later; auth+capture is the degenerate path)</text>
  <circle cx="75" cy="330" r="9" fill="#0f172a" stroke="#0f172a" stroke-width="1.7"/>
  <circle cx="75" cy="330" r="4" fill="#ffffff"/>
  <line x1="84" y1="330" x2="135" y2="330" stroke="#475569" stroke-width="1.6" marker-end="url(#arrow)"/>
  <line x1="305" y1="330" x2="475" y2="330" stroke="#475569" stroke-width="1.6" marker-end="url(#arrow)"/>  <rect x="327.75" y="308.5" width="124.5" height="19.5" rx="4" fill="#ffffff" opacity="0.95"/>
  <text x="390" y="323" text-anchor="middle" font-size="12.5" font-weight="400" fill="#1e293b">auth ok (or recon)</text>
  <line x1="645" y1="330" x2="815" y2="330" stroke="#475569" stroke-width="1.6" marker-end="url(#arrow)"/>  <rect x="677.125" y="308.5" width="105.75" height="19.5" rx="4" fill="#ffffff" opacity="0.95"/>
  <text x="730" y="323" text-anchor="middle" font-size="12.5" font-weight="400" fill="#1e293b">capture(amount)</text>
  <line x1="985" y1="330" x2="1155" y2="330" stroke="#475569" stroke-width="1.6" marker-end="url(#arrow)"/>  <rect x="1001.5" y="308.5" width="137" height="19.5" rx="4" fill="#ffffff" opacity="0.95"/>
  <text x="1070" y="323" text-anchor="middle" font-size="12.5" font-weight="400" fill="#1e293b">success, sum == auth</text>
  <line x1="220" y1="304" x2="220" y2="176" stroke="#475569" stroke-width="1.6" marker-end="url(#arrow)"/>  <rect x="227" y="236.5" width="124.5" height="19.5" rx="4" fill="#ffffff" opacity="0.95"/>
  <text x="233" y="251" text-anchor="start" font-size="12.5" font-weight="400" fill="#1e293b">decline (or recon)</text>
  <circle cx="75" cy="150" r="9" fill="#ffffff" stroke="#0f172a" stroke-width="1.7"/>
  <line x1="135" y1="150" x2="84" y2="150" stroke="#475569" stroke-width="1.6" marker-end="url(#arrow)"/>
  <line x1="560" y1="356" x2="560" y2="514" stroke="#475569" stroke-width="1.6" marker-end="url(#arrow)"/>  <rect x="567" y="432.5" width="130.75" height="19.5" rx="4" fill="#ffffff" opacity="0.95"/>
  <text x="573" y="447" text-anchor="start" font-size="12.5" font-weight="400" fill="#1e293b">void / auth expired</text>
  <line x1="890" y1="356" x2="890" y2="514" stroke="#475569" stroke-width="1.6" marker-end="url(#arrow)"/>  <rect x="897" y="432.5" width="130.75" height="19.5" rx="4" fill="#ffffff" opacity="0.95"/>
  <text x="903" y="447" text-anchor="start" font-size="12.5" font-weight="400" fill="#1e293b">success, sum &lt; auth</text>
  <line x1="835" y1="356" x2="645" y2="514" stroke="#475569" stroke-width="1.6" marker-end="url(#arrow)"/>  <rect x="652.75" y="418.5" width="124.5" height="19.5" rx="4" fill="#ffffff" opacity="0.95"/>
  <text x="715" y="433" text-anchor="middle" font-size="12.5" font-weight="400" fill="#1e293b">expired / rejected</text>
  <path d="M 940 514 Q 1075 435 940 356" fill="none" stroke="#475569" stroke-width="1.6" marker-end="url(#arrow)"/>  <rect x="1046" y="420.5" width="93.25" height="19.5" rx="4" fill="#ffffff" opacity="0.95"/>
  <text x="1052" y="435" text-anchor="start" font-size="12.5" font-weight="400" fill="#1e293b">capture(more)</text>
  <line x1="815" y1="540" x2="645" y2="540" stroke="#475569" stroke-width="1.6" marker-end="url(#arrow)"/>  <rect x="649" y="518.5" width="162" height="19.5" rx="4" fill="#ffffff" opacity="0.95"/>
  <text x="730" y="533" text-anchor="middle" font-size="12.5" font-weight="400" fill="#1e293b">void remainder / expired</text>
  <circle cx="1372" cy="330" r="9" fill="#ffffff" stroke="#0f172a" stroke-width="1.7"/>
  <line x1="1325" y1="330" x2="1363" y2="330" stroke="#475569" stroke-width="1.6" marker-end="url(#arrow)"/>
  <circle cx="560" cy="632" r="9" fill="#ffffff" stroke="#0f172a" stroke-width="1.7"/>
  <line x1="560" y1="566" x2="560" y2="623" stroke="#475569" stroke-width="1.6" marker-end="url(#arrow)"/>
  <rect x="135" y="304" width="170" height="52" rx="10" fill="#fffbeb" stroke="#d97706" stroke-width="1.7"/>
  <text x="220" y="335" text-anchor="middle" font-size="14.5" font-weight="700" fill="#92400e">pending</text>
  <rect x="135" y="124" width="170" height="52" rx="10" fill="#fef2f2" stroke="#dc2626" stroke-width="1.7"/>
  <text x="220" y="155" text-anchor="middle" font-size="14.5" font-weight="700" fill="#991b1b">declined</text>
  <rect x="475" y="304" width="170" height="52" rx="10" fill="#eef2ff" stroke="#4f46e5" stroke-width="1.7"/>
  <text x="560" y="335" text-anchor="middle" font-size="14.5" font-weight="700" fill="#3730a3">authorized</text>
  <rect x="815" y="304" width="170" height="52" rx="10" fill="#fffbeb" stroke="#d97706" stroke-width="1.7"/>
  <text x="900" y="335" text-anchor="middle" font-size="14.5" font-weight="700" fill="#92400e">pending_captured</text>
  <rect x="1155" y="304" width="170" height="52" rx="10" fill="#f0fdf4" stroke="#16a34a" stroke-width="1.7"/>
  <text x="1240" y="335" text-anchor="middle" font-size="14.5" font-weight="700" fill="#166534">captured</text>
  <rect x="815" y="514" width="170" height="52" rx="10" fill="#eef2ff" stroke="#4f46e5" stroke-width="1.7"/>
  <text x="900" y="545" text-anchor="middle" font-size="14.5" font-weight="700" fill="#3730a3">partially_captured</text>
  <rect x="475" y="514" width="170" height="52" rx="10" fill="#f3f4f6" stroke="#6b7280" stroke-width="1.7"/>
  <text x="560" y="545" text-anchor="middle" font-size="14.5" font-weight="700" fill="#374151">cancelled</text>
</svg>
